# xmcd
#
# Track frame offsets:
#	150
#	15006
#	26388
#	49101
#	58998
#	81507
#	93750
#	104967
#	126830
#	139514
#	152647
#	169774
#
# Disc length: 2586 seconds
#
# Revision: 1
# Processed by: cddbd v1.5.1PL0 Copyright (c) Steve Scherf et al.
# Submitted via: EasyCDDAExtractor 7.0.5.4
#
DISCID=950a180c
DTITLE=Moreland and Arbuckle - Caney Valley Blues
DYEAR=2005
DGENRE=Blues
TTITLE0=Caney Valley Blues
TTITLE1=Red Bricks
TTITLE2=Everbody Loves My Baby
TTITLE3=Keep Your Lamp Trimmed and Burnin'
TTITLE4=Coal Black Maddie
TTITLE5=Old Like Me
TTITLE6=Shake It and Break It
TTITLE7=Highway 61
TTITLE8=Don't Bother
TTITLE9=Morning Light
TTITLE10=Fish Ain't Bitin'
TTITLE11=Outback Blues
EXTD=
EXTT0=
EXTT1=
EXTT2=
EXTT3=
EXTT4=
EXTT5=
EXTT6=
EXTT7=
EXTT8=
EXTT9=
EXTT10=
EXTT11=
PLAYORDER=
